<svg width="150" height="47" viewBox="0 0 150 47" fill="none" xmlns="http://www.w3.org/2000/svg">
<path d="M26.2779 11.5853C25.4779 10.1187 24.3779 9.00202 22.9779 8.23535C21.5779 7.46868 19.9446 7.08535 18.0779 7.08535C16.0112 7.08535 14.1779 7.55202 12.5779 8.48535C10.9779 9.41868 9.72789 10.752 8.82789 12.4854C7.92789 14.2187 7.47789 16.2187 7.47789 18.4854C7.47789 20.8187 7.92789 22.852 8.82789 24.5854C9.76123 26.3187 11.0446 27.652 12.6779 28.5854C14.3112 29.5187 16.2112 29.9854 18.3779 29.9854C21.0446 29.9854 23.2279 29.2854 24.9279 27.8854C26.6279 26.452 27.7446 24.4687 28.2779 21.9354H16.2779V16.5854H35.1779V22.6854C34.7112 25.1187 33.7112 27.3687 32.1779 29.4354C30.6446 31.502 28.6612 33.1687 26.2279 34.4354C23.8279 35.6687 21.1279 36.2854 18.1279 36.2854C14.7612 36.2854 11.7112 35.5354 8.97789 34.0354C6.27789 32.502 4.14456 30.3854 2.57789 27.6854C1.04456 24.9854 0.277893 21.9187 0.277893 18.4854C0.277893 15.052 1.04456 11.9854 2.57789 9.28535C4.14456 6.55202 6.27789 4.43535 8.97789 2.93535C11.7112 1.40202 14.7446 0.635351 18.0779 0.635351C22.0112 0.635351 25.4279 1.60202 28.3279 3.53535C31.2279 5.43535 33.2279 8.11868 34.3279 11.5853H26.2779ZM99.3624 13.4654C101.016 13.4654 102.469 13.7987 103.722 14.4653C104.976 15.1054 105.962 15.9454 106.682 16.9854V13.8254H112.322V36.1454C112.322 38.1987 111.909 40.0254 111.082 41.6254C110.256 43.252 109.016 44.532 107.362 45.4654C105.709 46.4254 103.709 46.9054 101.362 46.9054C98.2158 46.9054 95.6291 46.172 93.6024 44.7054C91.6024 43.2387 90.4691 41.2387 90.2024 38.7054H95.7624C96.0558 39.7187 96.6824 40.5187 97.6424 41.1054C98.6291 41.7187 99.8158 42.0254 101.202 42.0254C102.829 42.0254 104.149 41.532 105.162 40.5454C106.176 39.5854 106.682 38.1187 106.682 36.1454V32.7054C105.962 33.7454 104.962 34.612 103.682 35.3054C102.429 35.9987 100.989 36.3454 99.3624 36.3454C97.4958 36.3454 95.7891 35.8654 94.2424 34.9054C92.6958 33.9454 91.4691 32.5987 90.5624 30.8654C89.6824 29.1054 89.2424 27.092 89.2424 24.8254C89.2424 22.5854 89.6824 20.5987 90.5624 18.8654C91.4691 17.132 92.6824 15.7987 94.2024 14.8654C95.7491 13.932 97.4691 13.4654 99.3624 13.4654ZM106.682 24.9054C106.682 23.5454 106.416 22.3854 105.882 21.4254C105.349 20.4387 104.629 19.692 103.722 19.1854C102.816 18.652 101.842 18.3854 100.802 18.3854C99.7624 18.3854 98.8024 18.6387 97.9224 19.1454C97.0424 19.652 96.3224 20.3987 95.7624 21.3854C95.2291 22.3454 94.9624 23.492 94.9624 24.8254C94.9624 26.1587 95.2291 27.332 95.7624 28.3454C96.3224 29.332 97.0424 30.092 97.9224 30.6254C98.8291 31.1587 99.7891 31.4254 100.802 31.4254C101.842 31.4254 102.816 31.172 103.722 30.6654C104.629 30.132 105.349 29.3854 105.882 28.4254C106.416 27.4387 106.682 26.2654 106.682 24.9054Z" fill="#1976D2"/>
<path d="M49.5068 36.3454C47.3735 36.3454 45.4535 35.8787 43.7468 34.9454C42.0401 33.9854 40.6935 32.6387 39.7068 30.9054C38.7468 29.172 38.2668 27.172 38.2668 24.9054C38.2668 22.6387 38.7601 20.6387 39.7468 18.9054C40.7601 17.172 42.1335 15.8387 43.8668 14.9054C45.6001 13.9454 47.5335 13.4654 49.6668 13.4654C51.8001 13.4654 53.7335 13.9454 55.4668 14.9054C57.2001 15.8387 58.5601 17.172 59.5468 18.9054C60.5601 20.6387 61.0668 22.6387 61.0668 24.9054C61.0668 27.172 60.5468 29.172 59.5068 30.9054C58.4935 32.6387 57.1068 33.9854 55.3468 34.9454C53.6135 35.8787 51.6668 36.3454 49.5068 36.3454ZM49.5068 31.4654C50.5201 31.4654 51.4668 31.2254 52.3468 30.7454C53.2535 30.2387 53.9735 29.492 54.5068 28.5054C55.0401 27.5187 55.3068 26.3187 55.3068 24.9054C55.3068 22.7987 54.7468 21.1854 53.6268 20.0654C52.5335 18.9187 51.1868 18.3454 49.5868 18.3454C47.9868 18.3454 46.6401 18.9187 45.5468 20.0654C44.4801 21.1854 43.9468 22.7987 43.9468 24.9054C43.9468 27.012 44.4668 28.6387 45.5068 29.7854C46.5735 30.9054 47.9068 31.4654 49.5068 31.4654ZM149.525 24.4254C149.525 25.2254 149.471 25.9454 149.365 26.5854H133.165C133.298 28.1854 133.858 29.4387 134.845 30.3454C135.831 31.252 137.045 31.7054 138.485 31.7054C140.565 31.7054 142.045 30.812 142.925 29.0254H148.965C148.325 31.1587 147.098 32.9187 145.285 34.3054C143.471 35.6654 141.245 36.3454 138.605 36.3454C136.471 36.3454 134.551 35.8787 132.845 34.9454C131.165 33.9854 129.845 32.6387 128.885 30.9054C127.951 29.172 127.485 27.172 127.485 24.9054C127.485 22.612 127.951 20.5987 128.885 18.8654C129.818 17.132 131.125 15.7987 132.805 14.8654C134.485 13.932 136.418 13.4654 138.605 13.4654C140.711 13.4654 142.591 13.9187 144.245 14.8253C145.925 15.732 147.218 17.0254 148.125 18.7054C149.058 20.3587 149.525 22.2654 149.525 24.4254ZM143.725 22.8254C143.698 21.3854 143.178 20.2387 142.165 19.3854C141.151 18.5054 139.911 18.0654 138.445 18.0654C137.058 18.0654 135.885 18.492 134.925 19.3454C133.991 20.172 133.418 21.332 133.205 22.8254H143.725Z" fill="#FF3D00"/>
<path d="M75.0146 36.3454C72.8813 36.3454 70.9613 35.8787 69.2546 34.9454C67.5479 33.9854 66.2013 32.6387 65.2146 30.9054C64.2546 29.172 63.7746 27.172 63.7746 24.9054C63.7746 22.6387 64.2679 20.6387 65.2546 18.9054C66.2679 17.172 67.6413 15.8387 69.3746 14.9054C71.1079 13.9454 73.0413 13.4654 75.1746 13.4654C77.3079 13.4654 79.2413 13.9454 80.9746 14.9054C82.7079 15.8387 84.0679 17.172 85.0546 18.9054C86.0679 20.6387 86.5746 22.6387 86.5746 24.9054C86.5746 27.172 86.0546 29.172 85.0146 30.9054C84.0013 32.6387 82.6146 33.9854 80.8546 34.9454C79.1213 35.8787 77.1746 36.3454 75.0146 36.3454ZM75.0146 31.4654C76.0279 31.4654 76.9746 31.2254 77.8546 30.7454C78.7613 30.2387 79.4813 29.492 80.0146 28.5054C80.5479 27.5187 80.8146 26.3187 80.8146 24.9054C80.8146 22.7987 80.2546 21.1854 79.1346 20.0654C78.0413 18.9187 76.6946 18.3454 75.0946 18.3454C73.4946 18.3454 72.1479 18.9187 71.0546 20.0654C69.9879 21.1854 69.4546 22.7987 69.4546 24.9054C69.4546 27.012 69.9746 28.6387 71.0146 29.7854C72.0813 30.9054 73.4146 31.4654 75.0146 31.4654Z" fill="#FFC107"/>
<path d="M123.392 6.38535V35.9854H117.792V6.38535H123.392Z" fill="#4CAF50"/>
</svg>
